<svg width="256" height="256" viewBox="0 0 256 256" fill="none" xmlns="http://www.w3.org/2000/svg">
<rect width="256" height="256" fill="#66FFF5"/>
<path d="M72.9158 157.64V61.5H87.3889V157.64C87.3889 177.97 70.821 194.5 50.4444 194.5C30.0679 194.5 13.5 177.97 13.5 157.64V131.8H27.9731V157.64C27.9731 169.99 38.0662 180.06 50.4444 180.06C62.8227 180.06 72.9158 169.99 72.9158 157.64Z" fill="#0C0D0E"/>
<path d="M112.843 104.25L141.395 141.87V194.5H199.633L155.765 136.93V104.25L224.403 194.5H242.556L141.395 61.5V117.93L98.4722 61.5V194.5H112.843V104.25ZM170.514 180.06H155.765V160.68L170.514 180.06Z" fill="#0C0D0E"/>
</svg>
